# xmcd CD database file
#
# Track frame offsets:
#	150
#	24533
#	62247
#	92926
#	125295
#	164402
#	199776
#	228742
#
# Disc length: 3607 seconds
#
# Revision: 0
# Processed by: cddbd v1.4PL0 Copyright (c) Steve Scherf et al.
# Submitted via: CDex 1.51
#
DISCID=6d0e1508
DTITLE=Gomer Edwin Evans - Spititual Prayer
DYEAR=2001
DGENRE=New Age
TTITLE0=Gomer Edwin Evans - Spiritual Prayer - 01 - Thank You
TTITLE1=Gomer Edwin Evans - Spiritual Prayer - 02 - The Light
TTITLE2=Gomer Edwin Evans - Spiritual Prayer - 03 - The Lords Prayer
TTITLE3=Gomer Edwin Evans - Spiritual Prayer - 04 - We need the Worl
TTITLE4=Gomer Edwin Evans - Spiritual Prayer - 05 - Think of tomorro
TTITLE5=Gomer Edwin Evans - Spiritual Prayer - 06 - Who is he
TTITLE6=Gomer Edwin Evans - Spiritual Prayer - 07 - Me Oh My
TTITLE7=Gomer Edwin Evans - Spiritual Prayer - 08 - We need Love
EXTD=YEAR: 2001
EXTT0=
EXTT1=
EXTT2=
EXTT3=
EXTT4=
EXTT5=
EXTT6=
EXTT7=
PLAYORDER=
